<?xml version="1.0" encoding="UTF-8"?>
<svg id="Layer_1" data-name="Layer 1" xmlns="http://www.w3.org/2000/svg" viewBox="0 0 1000 300">
  <defs>
    <style>
      .cls-1 {
        stroke-width: 3.19px;
      }

      .cls-1, .cls-2 {
        stroke: #000;
        stroke-miterlimit: 10;
      }

      .cls-3 {
        fill: #fff;
      }

      .cls-4 {
        letter-spacing: -.02em;
      }

      .cls-2 {
        stroke-width: 2.51px;
      }

      .cls-5 {
        fill: #231f20;
        font-family: Conthrax-SemiBold, Conthrax;
        font-size: 208.35px;
        font-weight: 600;
      }
    </style>
  </defs>
  <path d="M616.98,58.95v4.5c0-1.5,0-3-.19-4.5h.19Z"/>
  <circle class="cls-2" cx="647.38" cy="159.03" r="27.86"/>
  <path class="cls-2" d="M738.9,144.83c0,17.17-2.82,33.49-7.9,48.2h-10.91v-34.02c0-.96,0-1.91-.1-2.87-1.43-38.8-33.42-69.82-72.64-69.82s-72.72,32.56-72.72,72.69,31.03,71.21,69.85,72.64c.96.13,1.91.13,2.87.13h62.18c-16.14,19.29-37.69,31.08-61.32,31.08-50.11,0-90.72-52.85-90.72-118.02s40.61-118.02,90.72-118.02,90.69,52.83,90.69,118.02Z"/>
  <circle class="cls-3" cx="647.38" cy="159.03" r="27.86"/>
  <circle class="cls-1" cx="647.38" cy="159.03" r="27.86"/>
  <text class="cls-5" transform="translate(5.96 231.45)"><tspan class="cls-4" x="0" y="0">Z</tspan><tspan x="173.97" y="0">ER</tspan></text>
  <g>
    <path d="M977.02,117.33v114.88h-56.92V88.9h28.49c15.74,0,28.43,12.75,28.43,28.43Z"/>
    <path d="M788.51,128.58l-.03,63.71c2.29,12.3,12.97,17.1,24.14,11.62,2.94-1.43,5.83-2.94,8.75-4.55v32.86h-56.92V88.88h56.92v32.96c-2.99-1.63-5.98-3.19-9-4.65-3.8-1.81-6.31-2.64-10.69-2.04-6.74.93-12.22,6.81-13.18,13.43Z"/>
    <path d="M901.63,117.34v114.88h-56.92v-46.39c7.44-4.43,14.91-8.8,22.43-12.72,8.7-6.79,7.82-20.06-1.41-25.9-7.07-3.49-14.06-7.54-21.02-11.69v-46.62h28.44c15.74,0,28.49,12.75,28.49,28.44Z"/>
  </g>
</svg>